<svg width="20" height="19" viewBox="0 0 20 19" fill="none" xmlns="http://www.w3.org/2000/svg">
<path d="M9.01516 0.0501175C6.8174 0.339687 4.86837 1.32719 3.32771 2.9421C1.99495 4.33798 1.1151 6.11252 0.810681 8.01328C0.714158 8.60727 0.691883 10.0143 0.769844 10.6491C1.13366 13.6228 2.87851 16.2549 5.48835 17.7584C6.46843 18.3227 7.50791 18.694 8.67733 18.8981C9.32329 19.0095 10.6932 19.0355 11.3763 18.9464C15.4674 18.4341 18.7417 15.401 19.5585 11.373C19.733 10.5192 19.7775 9.20498 19.6698 8.31028C19.1352 4.01499 15.705 0.584707 11.4097 0.0501175C10.8454 -0.0167065 9.54975 -0.0167065 9.01516 0.0501175ZM12.7462 5.26608V6.19419H12.0779C11.031 6.19419 11.0384 6.18677 11.0384 7.21511V7.90191H11.8923H12.7462V8.00215C12.7462 8.10981 12.6162 9.39431 12.5791 9.67274L12.5568 9.83238H11.7958H11.0384V12.5796V15.3268H9.90614H8.77385V12.5796V9.83238H8.21698H7.66012V8.86714V7.90191H8.21698H8.77385V7.1223C8.77385 6.20162 8.8184 5.91576 9.03372 5.46284C9.22305 5.07304 9.51634 4.77233 9.895 4.58671C10.3294 4.3751 10.5484 4.3454 11.7178 4.34169L12.7462 4.33798V5.26608Z" fill="white"/>
</svg>
